<?xml version="1.0" encoding="UTF-8"?>
<svg xmlns="http://www.w3.org/2000/svg" xmlns:xlink="http://www.w3.org/1999/xlink" width="375pt" height="374.999991pt" viewBox="0 0 375 374.999991" version="1.2">
<defs>
<clipPath id="clip1">
  <path d="M 164 28 L 359 28 L 359 347 L 164 347 Z M 164 28 "/>
</clipPath>
<clipPath id="clip2">
  <path d="M 15.730469 26.785156 L 358.476562 25.988281 L 359.226562 348.488281 L 16.476562 349.285156 Z M 15.730469 26.785156 "/>
</clipPath>
<clipPath id="clip3">
  <path d="M 15.730469 26.785156 L 358.476562 25.988281 L 359.226562 348.488281 L 16.476562 349.285156 Z M 15.730469 26.785156 "/>
</clipPath>
<clipPath id="clip4">
  <path d="M 16 28 L 210 28 L 210 347 L 16 347 Z M 16 28 "/>
</clipPath>
<clipPath id="clip5">
  <path d="M 15.730469 26.785156 L 358.476562 25.988281 L 359.226562 348.488281 L 16.476562 349.285156 Z M 15.730469 26.785156 "/>
</clipPath>
<clipPath id="clip6">
  <path d="M 15.730469 26.785156 L 358.476562 25.988281 L 359.226562 348.488281 L 16.476562 349.285156 Z M 15.730469 26.785156 "/>
</clipPath>
</defs>
<g id="surface1">
<g clip-path="url(#clip1)" clip-rule="nonzero">
<g clip-path="url(#clip2)" clip-rule="nonzero">
<g clip-path="url(#clip3)" clip-rule="nonzero">
<path style=" stroke:none;fill-rule:nonzero;fill:rgb(0%,22.749329%,54.899597%);fill-opacity:1;" d="M 228.289062 155.421875 C 228.296875 155.421875 228.296875 155.421875 228.296875 155.421875 C 230.359375 155.417969 232.027344 157.082031 232.035156 159.148438 C 232.035156 159.160156 232.027344 159.167969 232.027344 159.183594 L 232.214844 241.152344 C 232.214844 241.167969 232.136719 203.886719 232.136719 203.898438 L 232.316406 280.875 C 232.394531 314.601562 257.828125 344.042969 291.453125 346.222656 C 328.328125 348.609375 359.0625 319.214844 358.980469 282.820312 L 358.535156 91.738281 C 358.457031 57.394531 331.050781 28.859375 296.738281 28.496094 C 224.074219 27.75 164.808594 86.78125 164.976562 159.304688 L 165.050781 192.066406 C 165.054688 192.839844 166.039062 193.070312 166.402344 192.394531 C 178.394531 170.453125 201.589844 155.492188 228.289062 155.421875 Z M 228.289062 155.421875 "/>
</g>
</g>
</g>
<g clip-path="url(#clip4)" clip-rule="nonzero">
<g clip-path="url(#clip5)" clip-rule="nonzero">
<g clip-path="url(#clip6)" clip-rule="nonzero">
<path style=" stroke:none;fill-rule:nonzero;fill:rgb(9.408569%,56.469727%,100%);fill-opacity:1;" d="M 142.945312 216.191406 L 142.789062 149.070312 L 142.660156 94.464844 C 142.582031 60.730469 117.144531 31.289062 83.511719 29.117188 C 46.632812 26.734375 15.914062 56.140625 16 92.527344 L 16.441406 283.609375 C 16.523438 317.953125 43.925781 346.496094 78.238281 346.847656 C 150.902344 347.597656 210.167969 288.566406 210 216.042969 L 209.925781 183.273438 C 209.921875 182.5 208.945312 182.269531 208.574219 182.945312 C 196.566406 204.910156 173.328125 219.882812 146.59375 219.914062 C 144.582031 219.921875 142.949219 218.210938 142.945312 216.191406 Z M 142.945312 216.191406 "/>
</g>
</g>
</g>
</g>
</svg>
